<?xml version="1.0" encoding="UTF-8" standalone="no"?>
<!-- Created with Inkscape (http://www.inkscape.org/) -->

<svg
   width="34.514629mm"
   height="34.51672mm"
   viewBox="0 0 34.514629 34.51672"
   version="1.1"
   id="svg5"
   inkscape:version="1.1.1 (3bf5ae0d25, 2021-09-20)"
   sodipodi:docname="wikiLogo2.svg"
   inkscape:export-filename="Z:\Documents\wikiLogo.png"
   inkscape:export-xdpi="150"
   inkscape:export-ydpi="150"
   xmlns:inkscape="http://www.inkscape.org/namespaces/inkscape"
   xmlns:sodipodi="http://sodipodi.sourceforge.net/DTD/sodipodi-0.dtd"
   xmlns="http://www.w3.org/2000/svg"
   xmlns:svg="http://www.w3.org/2000/svg">
  <sodipodi:namedview
     id="namedview7"
     pagecolor="#ffffff"
     bordercolor="#666666"
     borderopacity="1.0"
     inkscape:pageshadow="2"
     inkscape:pageopacity="0.0"
     inkscape:pagecheckerboard="0"
     inkscape:document-units="mm"
     showgrid="false"
     inkscape:snap-midpoints="true"
     inkscape:snap-smooth-nodes="true"
     inkscape:object-paths="true"
     inkscape:snap-intersection-paths="true"
     inkscape:zoom="2.1115193"
     inkscape:cx="80.747546"
     inkscape:cy="121.47651"
     inkscape:window-width="1920"
     inkscape:window-height="1001"
     inkscape:window-x="-9"
     inkscape:window-y="-9"
     inkscape:window-maximized="1"
     inkscape:current-layer="layer1"
     fit-margin-top="0"
     fit-margin-left="0"
     fit-margin-right="0"
     fit-margin-bottom="0"
     inkscape:snap-global="true" />
  <defs
     id="defs2" />
  <g
     inkscape:label="Layer 1"
     inkscape:groupmode="layer"
     id="layer1"
     transform="translate(-28.423171,-85.19872)">
    <path
       id="rect5347-8"
       style="fill:#ffffff;fill-opacity:1;stroke:#8787de;stroke-width:2;stroke-linecap:round;stroke-miterlimit:4;stroke-dasharray:none"
       d="m 33.9286,117.95181 c -1.025745,1.02652 -2.702201,1.02651 -3.736205,-0.008 -1.034007,-1.034 -1.03401,-2.71046 -3e-6,-3.74448 l 10.404169,-10.4042 c 1.025742,-1.02652 2.702199,-1.02651 3.736203,0.008 1.034007,1.034 1.034011,2.71046 0.0037,3.74036 z"
       sodipodi:nodetypes="csccscc" />
    <path
       id="path849"
       style="fill:#ffffff;stroke:#8787de;stroke-width:1.58871;stroke-linecap:round"
       d="M 62.143445,97.644478 A 11.651402,11.651402 0 0 1 50.492043,109.29588 11.651402,11.651402 0 0 1 38.84064,97.644478 11.651402,11.651402 0 0 1 50.492043,85.993075 11.651402,11.651402 0 0 1 62.143445,97.644478 Z" />
    <g
       id="g15445"
       transform="translate(0.52917867,-0.74761033)">
      <path
         d="m 48.163706,99.185837 h 1.209735 v 4.948003 h -1.209735 z"
         style="font-weight:bold;font-size:6.79506px;line-height:1.25;-inkscape-font-specification:'sans-serif Bold';fill:#0055d4;stroke-width:0.413056"
         id="path12250"
         sodipodi:nodetypes="ccccc" />
      <path
         d="m 50.513574,99.185837 h 1.196392 v 1.806203 l 0.75244,-1.806203 h 1.22115 l -0.987252,2.343093 1.217208,2.60491 h -1.329913 l -0.873633,-1.94871 v 1.94871 h -1.196392 z"
         style="font-weight:bold;font-size:6.79506px;line-height:1.25;-inkscape-font-specification:'sans-serif Bold';fill:#0055d4;stroke-width:0.410771"
         id="path12252"
         sodipodi:nodetypes="cccccccccccc" />
      <path
         d="m 54.918333,99.185837 h 1.273027 v 4.948003 h -1.273027 z"
         style="font-weight:bold;font-size:6.79506px;line-height:1.25;-inkscape-font-specification:'sans-serif Bold';fill:#0055d4;stroke-width:0.423723"
         id="path12254"
         sodipodi:nodetypes="ccccc" />
      <path
         style="font-weight:bold;font-size:6.78777px;line-height:1.25;-inkscape-font-specification:'sans-serif Bold';fill:#0055d4;stroke-width:0.24543"
         d="m 41.40908,104.13415 h 1.624025 l 1.126876,-2.64816 1.133505,2.64816 h 1.620713 v -4.948313 h -1.20642 v 3.619263 l -1.140133,-2.66805 h -0.808699 l -1.140133,2.66805 v -3.619263 h -1.209733 v 3.163333 z"
         id="path13804" />
      <path
         style="font-weight:bold;font-size:6.78777px;line-height:1.25;-inkscape-font-specification:'sans-serif Bold';fill:#002255;stroke-width:0.24543"
         d="m 41.40908,93.708359 h 1.624027 l 1.126876,2.648158 1.133504,-2.648158 H 46.9142 v 4.948311 h -1.20642 v -3.61926 l -1.140133,2.668044 H 43.758948 L 42.618814,95.03741 v 3.61926 H 41.40908 Z"
         id="path12222" />
      <path
         d="m 48.163706,93.708359 h 1.624027 l 1.126876,2.648158 1.133505,-2.648158 h 1.620712 v 4.948311 h -1.20642 v -3.61926 l -1.140133,2.668044 H 50.513574 L 49.373441,95.03741 v 3.61926 h -1.209735 z"
         style="font-weight:bold;font-size:6.78777px;line-height:1.25;-inkscape-font-specification:'sans-serif Bold';fill:#002255;stroke-width:0.24543"
         id="path12224" />
      <path
         d="m 56.194354,94.672832 v 3.019364 h 0.457379 q 0.782184,0 1.193162,-0.387777 0.414293,-0.387778 0.414293,-1.126876 0,-0.735784 -0.410978,-1.120247 -0.410978,-0.384464 -1.196477,-0.384464 z m -1.276021,-0.964473 h 1.345622 q 1.126876,0 1.677056,0.162403 0.553495,0.159088 0.947902,0.543551 0.348006,0.334749 0.517037,0.772242 0.169031,0.437493 0.169031,0.990988 0,0.560123 -0.169031,1.000931 -0.169031,0.437493 -0.517037,0.772241 -0.397721,0.384464 -0.95453,0.546866 -0.55681,0.159089 -1.670428,0.159089 h -1.345622 z"
         style="font-weight:bold;font-size:6.78777px;line-height:1.25;-inkscape-font-specification:'sans-serif Bold';fill:#002255;stroke-width:0.24543"
         id="path12226" />
    </g>
  </g>
</svg>
